<?xml version="1.0" encoding="utf-8"?>
<!-- Generator: Adobe Illustrator 24.1.2, SVG Export Plug-In . SVG Version: 6.00 Build 0)  -->
<svg version="1.1" id="Layer_1" xmlns="http://www.w3.org/2000/svg" xmlns:xlink="http://www.w3.org/1999/xlink" x="0px" y="0px"
	 viewBox="0 0 128.5 42" style="enable-background:new 0 0 128.5 42;" xml:space="preserve">
<style type="text/css">
	.st0{fill:#052465;}
	.st1{fill:#EC0677;}
	.st2{fill:#262C65;}
</style>
<g>
	<g>
		<polygon class="st0" points="239.4,226.5 232.6,233.6 238.9,230.6 251,233.9 264,231.6 252.9,231.2 		"/>
		<polygon class="st0" points="258.8,226.9 264.4,222.1 244,225.8 		"/>
		<polygon class="st0" points="259.6,218.8 263.1,213.3 251.6,216.2 239.6,224.2 253.5,219.6 		"/>
		<path class="st0" d="M221.9,265.8l10.4,9.7l12.2-4c-0.2,0-11.4,1-11.4,1l-14.3-14L221.9,265.8z"/>
		<polygon class="st0" points="227.9,279.1 225.2,276.7 227.6,281.9 231.9,282.5 244.1,275.7 232.8,279.8 		"/>
		<polygon class="st0" points="275.7,231.2 264.6,231.6 277.6,233.9 289.8,230.6 296,233.6 289.2,226.5 		"/>
		<polygon class="st0" points="284.7,225.7 264.3,222 269.9,226.7 		"/>
		<polygon class="st0" points="275.1,219.6 289,224.2 277,216.2 265.5,213.3 269,218.8 		"/>
		<path class="st0" d="M284.1,271.5l12.2,4l10.4-9.7l3.1-7.3l-14.3,14C295.5,272.5,284.3,271.5,284.1,271.5z"/>
		<polygon class="st0" points="295.8,279.8 284.5,275.7 296.7,282.5 301,281.9 303.4,276.7 300.7,279.1 		"/>
		<path class="st0" d="M321.6,247.8L321.6,247.8c0.1,0,0-0.1,0-0.1c0,0,0-0.1,0-0.1l0,0c-0.3-0.2-1.2-0.9-2.3-1.6
			c-1.4-0.9-4.7-2.5-8.3-2.8c-1.5-0.1-2.8-0.1-3.7,0c-0.3-1.1-1.3-4-3.3-8.1c-0.3-0.6-0.6-1.1-0.8-1.6c0,0,0.1-0.1,0.1-0.1
			c0.6-0.8,3.6-4.6,4.9-8.4c1.5-4.2,1.9-8.5-0.3-13.1c-2.2-4.6-5.3-5.1-5.3-5.1l0,0c-0.6-0.2-2.4-0.5-5.8,0.1
			c-4.1,0.8-6.6,2.5-8.8,3.4c-2.2,0.9-3.7,1.7-4.4,1.9c-0.7,0.3-3.5-0.2-3.5-0.2s-3.3-1.1-8.8-1.5c-4.6-0.4-6.4,0.1-6.9,0.2
			c-0.5-0.2-2.3-0.6-6.9-0.2c-5.6,0.4-8.8,1.5-8.8,1.5s-2.8,0.5-3.5,0.2c-0.7-0.3-2.2-1.1-4.4-1.9c-2.2-0.9-4.6-2.6-8.8-3.4
			c-3.5-0.7-5.2-0.3-5.8-0.1l0,0c0,0-3.2,0.5-5.3,5.1s-1.7,8.9-0.3,13.1c1.3,3.8,4.3,7.6,4.9,8.4c0,0,0.1,0.1,0.1,0.1
			c-0.3,0.5-0.6,1.1-0.8,1.6c-2,4.1-2.9,7-3.3,8.1c-1-0.1-2.2-0.2-3.7,0c-3.6,0.3-6.9,1.9-8.3,2.8c-1.1,0.7-2,1.4-2.3,1.6l0,0
			c0,0,0,0,0,0.1c-0.1,0-0.1,0.1-0.1,0.1l0.1,0c-0.1,0.9-0.6,5.1,0.1,9.9c0.8,5.5,2.4,12.9,2.4,12.9l1.6-0.4c0,0,0.5,1.8,2.2,5.8
			c3.8,8.9,8.7,13.5,8.7,13.5l2.8-0.1l0.3,4l24.4,5.3c1.1,2.8,1.8,4.9,1.8,4.9s1.7,1.9,4.4,2.7c2.5,0.8,8,1.1,8.6,1.1l0,0
			c0,0,0,0,0,0c0,0,0,0,0,0l0,0c0.7,0,6.1-0.4,8.6-1.1c2.7-0.8,4.4-2.7,4.4-2.7s0.8-2.1,1.8-4.9l24.4-5.3l0.3-4l2.8,0.1
			c0,0,4.9-4.5,8.7-13.5c1.7-4,2.2-5.8,2.2-5.8l1.6,0.4c0,0,1.6-7.4,2.4-12.9C322.2,252.9,321.7,248.7,321.6,247.8z M274.3,301.6
			c-0.7,1.2-9.9,2.5-9.9,2.5l0,0l-0.3,0l-0.4-0.1c0,0,0,0,0,0c-1.8-0.3-8.8-1.4-9.5-2.5c-0.4-0.7-2.7-6.1-4.5-10.6
			c1,0.3,2.2,0.5,3.7,0.6c3.6,0.2,6.8-0.6,8.4-1.5c1.3-0.7,2.1-1.7,2.4-2.1c0.3,0.4,1.1,1.4,2.4,2.1c1.6,0.9,4.8,1.7,8.4,1.5
			c1.5-0.1,2.8-0.3,3.7-0.6C277,295.5,274.7,300.9,274.3,301.6z M318.4,249.7c0,0-0.1,6.8-0.9,11.6c-0.9,5.2-1.3,6-1.3,6l-8.1,0.5
			l5.7,3.4c0,0-2.3,5.8-4.4,9.3c-2.1,3.4-4.8,5.9-4.8,5.9l-4.4,0.2l-0.2,4.3l-19.4,4.3c2-5.4,4.2-11.4,4.5-12.1
			c0.4-1.2-0.1-2.4-0.1-2.4l-9.5-17.8c0.8,0.8,1.6,1.5,2.4,2.1l-7.3-9.4c0,0.1,0.1,0.2,0.1,0.2c0,0.1,0,0.1-0.1,0.2
			c-0.5,2.5,2.6,9,2.6,9s3.9,7.2,6.4,11.9l-11,3.9l12.5-1.1c0.3,0.5,0.5,0.8,0.5,1c0.2,0.3,0.2,0.7,0.2,1.2l-13.4,0.6l13,1.8
			c0,0.2-0.1,0.3-0.1,0.3s-0.4,0.9-0.9,2.3l-12.3-3.2l9.9,4.6c-0.2,0.1-0.4,0.1-0.6,0.2c-2.7,0.7-5.9,0.5-7.8-0.4
			c-1.9-0.9-3.9-4.1-3.9-4.1l0.2-3.2c0,0,8.7-3.9,9.1-6.6c0.4-2.7-2.3-2.7-2.3-2.7l-8.5,1.8l0,0h0c0,0,0,0,0,0v0l-8.5-1.8
			c0,0-2.7,0-2.3,2.7c0.4,2.7,9.1,6.6,9.1,6.6l0.2,3.2c0,0-1.9,3.2-3.9,4.1c-1.9,0.9-5.1,1-7.8,0.4c-0.2-0.1-0.4-0.1-0.6-0.2
			l9.9-4.6l-12.3,3.2c-0.6-1.4-0.9-2.3-0.9-2.3s0-0.1-0.1-0.3l13-1.8l-13.4-0.6c0-0.5,0-0.9,0.2-1.2c0.1-0.1,0.3-0.5,0.5-1l12.5,1.1
			l-11-3.9c2.5-4.7,6.4-11.9,6.4-11.9s3.1-6.5,2.6-9c0-0.1,0-0.2-0.1-0.2c0.1-0.1,0.1-0.3,0.2-0.4l-0.2,0c0,0-3.6,5.6-5.3,8
			c0.2-0.2,0.4-0.4,0.6-0.6l-9.5,17.8c0,0-0.5,1.2-0.1,2.4c0.2,0.7,2.5,6.7,4.5,12.1l-19.4-4.3l-0.2-4.3l-4.4-0.2
			c0,0-2.7-2.4-4.8-5.9c-2.1-3.4-4.4-9.3-4.4-9.3l5.7-3.4l-8.1-0.5c0,0-0.4-0.8-1.3-6c-0.8-4.7-0.9-11.6-0.9-11.6l0,0
			c0.6-0.6,2.9-2.6,6.7-3.2c4.5-0.7,6.9-0.2,6.9-0.2s0.1-0.9,0.9-3.2c0.7-2,1.5-4.6,3.4-8.2c1.9-3.6,6.7-9.8,6.7-9.8l-2-1.6
			c0,0-0.7,0.9-2.1,2.5c-0.9,1.1-2.2,2.8-3.7,5c-1.4-2-4.1-6.2-4.5-8.7c-0.5-3.3-0.8-6.1,0.8-9.4c1.2-2.4,2.6-3.2,3.2-3.5
			c0.6-0.1,2.9-0.4,4.2,0c1.5,0.5,6.5,2.4,9.2,3.5c2.7,1.2,4.6,2.2,6.2,2.1c1.6-0.1,4.7-0.7,9.6-1.6c4.4-0.8,8-0.3,8.7-0.2l0,0
			c0,0,0,0,0.1,0c0,0,0.1,0,0.1,0l0,0c0.7-0.1,4.3-0.7,8.7,0.2c4.9,0.9,8,1.5,9.6,1.6c1.6,0.1,3.5-0.9,6.2-2.1
			c2.7-1.2,7.7-3,9.2-3.5c1.3-0.5,3.6-0.1,4.2,0c0.7,0.2,2.1,1,3.2,3.5c1.6,3.3,1.3,6,0.8,9.4c-0.4,2.5-3.1,6.7-4.5,8.7
			c-1.4-2.3-2.8-3.9-3.7-5c-1.4-1.7-2.1-2.5-2.1-2.5l-2,1.6c0,0,4.8,6.1,6.7,9.8c1.9,3.6,2.7,6.2,3.4,8.2c0.8,2.3,0.9,3.2,0.9,3.2
			s2.4-0.5,6.9,0.2C315.6,247.1,317.9,249,318.4,249.7L318.4,249.7z"/>
		<g>
			<g>
				<path class="st1" d="M303.5,252.3c0-5.4-2.6-9.9-6.7-12.3c-2.9-1.7-7.1-2-9.7-2c0,0-3.6-0.1-7.1,0h-31.4v0
					c-3.6-0.2-7.5-0.1-7.5-0.1c-2.6,0-6.8,0.3-9.7,2c-4.1,2.4-6.7,6.9-6.7,12.3c0,0-0.4,4.5,1.9,8.9c4,7.8,12.5,8.1,12.5,8.1
					c11.6,0,21-9.4,21-21l0,0c0-0.1,0-0.3,0-0.4h7.8c0,0.1,0,0.3,0,0.4l0,0c0,11.6,9.4,21,21,21c0,0,8.5-0.2,12.5-8.1
					C303.8,256.8,303.5,252.3,303.5,252.3z M259.6,244.4c-0.4-1.1-0.9-2-1.6-2.9h12.1c-0.7,0.9-1.2,1.8-1.6,2.9H259.6z"/>
			</g>
		</g>
	</g>
</g>
<g>
	<path class="st0" d="M503.1,260.5v2.2c0,0.1,0.1,0.2,0.2,0.2h4.9c0.9,0,1.6,0.7,1.6,1.6v3.6c0,0.9-0.7,1.6-1.6,1.6h-4.9
		c-0.1,0-0.2,0.1-0.2,0.2v2.1c0,0.1,0.1,0.2,0.2,0.2h6.8c1,0,1.8,0.8,1.8,1.8v3.7c0,1-0.8,1.7-1.8,1.7h-13.6c-1.4,0-2.4-1.1-2.4-3
		v-21.7c0-0.8,1.1-1.8,2.4-1.8h13.6c1,0,1.8,0.8,1.8,1.7v3.7c0,0.9-0.8,1.7-1.8,1.7h-6.8C503.2,260.3,503.1,260.4,503.1,260.5z"/>
	<path class="st0" d="M536.6,279.4c-0.3,0.2-0.6,0.3-1,0.3h-4.5c-1.2,0-1.7-0.8-2.2-2.1l-1-2.6h-5.1l-1,2.6c-0.5,1.3-1,2-2.2,2H515
		c-0.3,0-0.6,0-0.9-0.2c-1-0.4-1.5-1.6-1.2-2.6l6-22c0.1-0.6,0.5-1,0.8-1.2c0.3-0.3,0.8-0.4,1.3-0.4h8.7c0.5,0,1.1,0.1,1.6,0.6
		c0.5,0.5,0.6,1.1,0.7,1.5l5.7,21.6C537.9,277.9,537.5,279,536.6,279.4z M527.3,266.7l-0.9-2.3l-0.7-1.7c-0.1-0.4-0.7-0.4-0.9,0
		l-0.7,1.7l-0.9,2.3c-0.2,0.3,0.1,0.6,0.4,0.6h3.1C527.2,267.3,527.4,267,527.3,266.7z"/>
	<path class="st0" d="M558.3,255.4v4.6c0,1.3-1.1,2.3-2.3,2.3h-4.6c-0.1,0-0.3,0.1-0.3,0.2v14.9c0,1.3-1.1,2.3-2.3,2.3h-4.5
		c-1.3,0-2.4-1.1-2.4-2.3v-14.9c0-0.1-0.1-0.2-0.2-0.2h-4.6c-1.3,0-2.3-1.1-2.3-2.3v-4.6c0-1.3,1.1-2.3,2.3-2.3H556
		C557.3,253,558.3,254.1,558.3,255.4z"/>
	<path class="st0" d="M577.7,254.9v3.7c0,0.9-0.8,1.7-1.7,1.7h-6.8c-0.1,0-0.2,0.1-0.2,0.2v3.1c0,0.1,0.1,0.2,0.2,0.2h4.9
		c0.9,0,1.6,0.7,1.6,1.6v3.7c0,0.9-0.7,1.6-1.6,1.6h-4.9c-0.1,0-0.2,0.1-0.2,0.3v6.3c0,1.4-1.1,2.5-2.5,2.5h-4.2
		c-1.3,0-2.4-1.1-2.4-2.5v-21.7c0-1.4,1.1-2.5,2.4-2.5h13.7C576.9,253.1,577.7,253.9,577.7,254.9z"/>
	<path class="st0" d="M585.4,279.7h-4.1c-1.3,0-2.4-1.1-2.4-2.4v-21.9c0-1.4,1.1-2.4,2.4-2.4h4.1c1.4,0,2.4,1,2.4,2.4v21.9
		C587.8,278.6,586.8,279.7,585.4,279.7z"/>
	<path class="st0" d="M612.5,255.4v4.6c0,1.3-1.1,2.3-2.3,2.3h-4.6c-0.1,0-0.3,0.1-0.3,0.2v14.9c0,1.3-1.1,2.3-2.3,2.3h-4.5
		c-1.3,0-2.4-1.1-2.4-2.3v-14.9c0-0.1-0.1-0.2-0.2-0.2h-4.6c-1.3,0-2.3-1.1-2.3-2.3v-4.6c0-1.3,1.1-2.3,2.3-2.3h18.9
		C611.5,253,612.5,254.1,612.5,255.4z"/>
	<g>
		<polygon class="st2" points="434.7,247.7 430.6,252 434.3,250.2 441.6,252.2 449.5,250.8 442.8,250.6 		"/>
		<polygon class="st2" points="446.4,248 449.7,245.1 437.4,247.3 		"/>
		<polygon class="st2" points="446.8,243.1 449,239.8 442,241.5 434.8,246.4 443.1,243.6 		"/>
		<path class="st2" d="M424.2,271.4l6.3,5.8l7.3-2.4c-0.1,0-6.9,0.6-6.9,0.6l-8.6-8.4L424.2,271.4z"/>
		<polygon class="st2" points="427.8,279.4 426.1,277.9 427.6,281.1 430.2,281.5 437.5,277.3 430.7,279.8 		"/>
		<polygon class="st2" points="456.5,250.6 449.8,250.8 457.7,252.2 465,250.2 468.8,252 464.7,247.7 		"/>
		<polygon class="st2" points="462,247.3 449.7,245 453,247.9 		"/>
		<polygon class="st2" points="456.2,243.6 464.5,246.4 457.3,241.5 450.4,239.8 452.5,243.1 		"/>
		<path class="st2" d="M461.6,274.8l7.3,2.4l6.3-5.8l1.9-4.4l-8.6,8.4C468.4,275.4,461.7,274.8,461.6,274.8z"/>
		<polygon class="st2" points="468.6,279.8 461.8,277.3 469.1,281.5 471.8,281.1 473.2,277.9 471.6,279.4 		"/>
		<path class="st0" d="M484.1,260.6L484.1,260.6C484.2,260.5,484.2,260.5,484.1,260.6c0-0.1,0-0.1,0-0.1L484.1,260.6
			c-0.2-0.2-0.8-0.6-1.4-1c-0.8-0.5-2.8-1.5-5-1.7c-0.9-0.1-1.7,0-2.2,0c-0.2-0.6-0.8-2.4-2-4.8c-0.2-0.3-0.3-0.7-0.5-1
			c0,0,0-0.1,0.1-0.1c0.4-0.5,2.2-2.8,3-5c0.9-2.5,1.2-5.1-0.2-7.9c-1.3-2.8-3.2-3.1-3.2-3.1l0,0c-0.4-0.1-1.4-0.3-3.5,0.1
			c-2.5,0.5-4,1.5-5.3,2c-1.3,0.5-2.3,1-2.7,1.2c-0.4,0.2-2.1-0.1-2.1-0.1s-2-0.7-5.3-0.9c-2.7-0.2-3.8,0-4.1,0.1
			c-0.3-0.1-1.4-0.3-4.1-0.1c-3.3,0.3-5.3,0.9-5.3,0.9s-1.7,0.3-2.1,0.1c-0.4-0.2-1.4-0.6-2.7-1.2c-1.3-0.5-2.8-1.5-5.3-2
			c-2.1-0.4-3.1-0.2-3.5-0.1l0,0c0,0-1.9,0.3-3.2,3.1c-1.3,2.8-1,5.4-0.2,7.9c0.8,2.3,2.6,4.6,3,5c0,0,0,0.1,0.1,0.1
			c-0.2,0.3-0.3,0.6-0.5,1c-1.2,2.4-1.8,4.2-2,4.8c-0.6-0.1-1.3-0.1-2.2,0c-2.2,0.2-4.2,1.2-5,1.7c-0.7,0.4-1.2,0.8-1.4,1l0,0
			c0,0,0,0,0,0c0,0,0,0,0,0l0,0c-0.1,0.5-0.4,3,0.1,6c0.5,3.3,1.4,7.8,1.4,7.8l0.9-0.2c0,0,0.3,1.1,1.3,3.5c2.3,5.4,5.2,8.1,5.2,8.1
			l1.7-0.1l0.2,2.4l14.7,3.2c0.6,1.7,1.1,3,1.1,3s1,1.1,2.7,1.6c1.5,0.5,4.8,0.7,5.2,0.7v0c0,0,0,0,0,0c0,0,0,0,0,0l0,0
			c0.4,0,3.7-0.2,5.2-0.7c1.6-0.5,2.7-1.6,2.7-1.6s0.5-1.2,1.1-3l14.7-3.2l0.2-2.4l1.7,0.1c0,0,2.9-2.7,5.2-8.1
			c1-2.4,1.3-3.5,1.3-3.5l0.9,0.2c0,0,1-4.5,1.4-7.8C484.5,263.6,484.2,261.1,484.1,260.6z M455.7,292.9c-0.4,0.7-5.9,1.5-5.9,1.5
			l0,0l-0.2,0l-0.2,0c0,0,0,0,0,0c-1.1-0.2-5.3-0.8-5.7-1.5c-0.3-0.4-1.6-3.7-2.7-6.4c0.6,0.2,1.3,0.3,2.2,0.4
			c2.2,0.1,4.1-0.4,5.1-0.9c0.8-0.4,1.3-1,1.4-1.3c0.2,0.2,0.7,0.9,1.4,1.3c1,0.5,2.9,1,5.1,0.9c0.9-0.1,1.7-0.2,2.2-0.4
			C457.3,289.3,455.9,292.5,455.7,292.9z M482.2,261.7c0,0-0.1,4.1-0.5,7c-0.5,3.2-0.8,3.6-0.8,3.6l-4.9,0.3l3.4,2.1
			c0,0-1.4,3.5-2.7,5.6c-1.3,2.1-2.9,3.5-2.9,3.5l-2.7,0.1l-0.1,2.6l-11.6,2.6c1.2-3.2,2.6-6.9,2.7-7.3c0.2-0.7,0-1.4,0-1.4
			l-5.7-10.7c0.5,0.5,0.9,0.9,1.5,1.3l-4.4-5.6c0,0,0,0.1,0.1,0.1c0,0,0,0.1,0,0.1c-0.3,1.5,1.6,5.4,1.6,5.4s2.4,4.4,3.9,7.2
			l-6.6,2.3l7.5-0.7c0.2,0.3,0.3,0.5,0.3,0.6c0.1,0.2,0.1,0.4,0.1,0.7l-8.1,0.4l7.8,1.1c0,0.1,0,0.2,0,0.2s-0.2,0.5-0.6,1.4
			l-7.4-1.9l6,2.8c-0.1,0-0.2,0.1-0.4,0.1c-1.6,0.4-3.5,0.3-4.7-0.2c-1.2-0.5-2.3-2.4-2.3-2.4l0.1-1.9c0,0,5.2-2.3,5.5-4
			c0.3-1.6-1.4-1.6-1.4-1.6l-5.1,1.1l0,0h0c0,0,0,0,0,0v0l-5.1-1.1c0,0-1.6,0-1.4,1.6c0.3,1.6,5.5,4,5.5,4l0.1,1.9
			c0,0-1.2,1.9-2.3,2.4c-1.2,0.5-3.1,0.6-4.7,0.2c-0.1,0-0.2-0.1-0.4-0.1l6-2.8l-7.4,1.9c-0.3-0.8-0.6-1.4-0.6-1.4s0-0.1,0-0.2
			l7.8-1.1l-8.1-0.4c0-0.3,0-0.5,0.1-0.7c0-0.1,0.2-0.3,0.3-0.6l7.5,0.7l-6.6-2.3c1.5-2.8,3.9-7.2,3.9-7.2s1.9-3.9,1.6-5.4
			c0-0.1,0-0.1,0-0.1c0-0.1,0.1-0.2,0.1-0.3l-0.1,0c0,0-2.2,3.4-3.2,4.8c0.1-0.1,0.2-0.2,0.4-0.3l-5.7,10.7c0,0-0.3,0.7,0,1.4
			c0.1,0.4,1.5,4,2.7,7.3l-11.6-2.6l-0.1-2.6l-2.7-0.1c0,0-1.6-1.5-2.9-3.5c-1.3-2.1-2.7-5.6-2.7-5.6l3.4-2.1l-4.9-0.3
			c0,0-0.2-0.5-0.8-3.6c-0.5-2.8-0.5-7-0.5-7l0,0c0.4-0.4,1.7-1.5,4-1.9c2.7-0.4,4.2-0.1,4.2-0.1s0.1-0.5,0.5-1.9
			c0.4-1.2,0.9-2.7,2-4.9c1.1-2.2,4-5.9,4-5.9l-1.2-1c0,0-0.4,0.5-1.3,1.5c-0.5,0.7-1.4,1.7-2.2,3c-0.8-1.2-2.5-3.8-2.7-5.2
			c-0.3-2-0.5-3.7,0.5-5.6c0.7-1.5,1.5-1.9,1.9-2.1c0.4-0.1,1.7-0.3,2.5,0c0.9,0.3,3.9,1.4,5.5,2.1c1.6,0.7,2.8,1.3,3.7,1.3
			c1-0.1,2.8-0.4,5.8-1c2.6-0.5,4.8-0.2,5.2-0.1l0,0c0,0,0,0,0,0c0,0,0,0,0,0l0,0c0.4-0.1,2.6-0.4,5.2,0.1c2.9,0.6,4.8,0.9,5.8,1
			c1,0.1,2.1-0.5,3.7-1.3c1.6-0.7,4.6-1.8,5.5-2.1c0.8-0.3,2.1-0.1,2.5,0c0.4,0.1,1.2,0.6,1.9,2.1c0.9,2,0.8,3.6,0.5,5.6
			c-0.2,1.5-1.9,4-2.7,5.2c-0.9-1.4-1.7-2.4-2.2-3c-0.8-1-1.3-1.5-1.3-1.5l-1.2,1c0,0,2.9,3.7,4,5.9c1.1,2.2,1.6,3.7,2,4.9
			c0.5,1.4,0.5,1.9,0.5,1.9s1.4-0.3,4.2,0.1C480.5,260.1,481.9,261.3,482.2,261.7L482.2,261.7z"/>
		<path class="st1" d="M473.2,263.2c0-3.2-1.6-5.9-4-7.4c-1.7-1-4.3-1.2-5.8-1.2c0,0-2.2-0.1-4.3,0h-18.9v0c-2.1-0.1-4.5,0-4.5,0
			c-1.6,0-4.1,0.2-5.8,1.2c-2.5,1.5-4,4.2-4,7.4c0,0-0.2,2.7,1.1,5.4c2.4,4.7,7.5,4.9,7.5,4.9c7,0,12.7-5.7,12.7-12.7l0,0
			c0-0.1,0-0.2,0-0.2h4.7c0,0.1,0,0.2,0,0.2l0,0c0,7,5.7,12.7,12.7,12.7c0,0,5.1-0.1,7.5-4.9C473.5,266,473.2,263.2,473.2,263.2z
			 M446.8,258.5c-0.2-0.6-0.5-1.2-1-1.7h7.3c-0.4,0.5-0.7,1.1-1,1.7H446.8z"/>
	</g>
</g>
<g>
	<path class="st0" d="M57.1,18v1.4c0,0.1,0.1,0.1,0.1,0.1h3.1c0.6,0,1,0.5,1,1v2.3c0,0.6-0.5,1-1,1h-3.1c-0.1,0-0.1,0.1-0.1,0.1v1.4
		c0,0.1,0.1,0.1,0.1,0.1h4.3c0.6,0,1.1,0.5,1.1,1.2v2.4c0,0.6-0.5,1.1-1.1,1.1h-8.7c-0.9,0-1.6-0.7-1.6-1.9V14.4
		c0-0.5,0.7-1.2,1.6-1.2h8.7c0.6,0,1.1,0.5,1.1,1.1v2.4c0,0.6-0.5,1.1-1.1,1.1h-4.3C57.2,17.8,57.1,17.9,57.1,18z"/>
	<path class="st0" d="M78.6,30.1c-0.2,0.1-0.4,0.2-0.6,0.2H75c-0.8,0-1.1-0.5-1.4-1.3L73,27.3h-3.3l-0.6,1.7
		c-0.3,0.8-0.6,1.3-1.4,1.3h-2.9c-0.2,0-0.4,0-0.6-0.1c-0.6-0.3-1-1-0.8-1.7l3.8-14.1c0.1-0.4,0.3-0.6,0.5-0.8
		c0.2-0.2,0.5-0.3,0.8-0.3h5.6c0.3,0,0.7,0.1,1,0.4c0.3,0.3,0.4,0.7,0.4,1l3.6,13.8C79.4,29.1,79.2,29.8,78.6,30.1z M72.6,21.9
		l-0.6-1.5l-0.4-1.1c-0.1-0.3-0.5-0.3-0.6,0l-0.4,1.1l-0.6,1.5c-0.1,0.2,0.1,0.4,0.3,0.4h2C72.5,22.4,72.7,22.2,72.6,21.9z"/>
	<path class="st0" d="M92.5,14.7v2.9c0,0.8-0.7,1.5-1.5,1.5h-2.9c-0.1,0-0.2,0.1-0.2,0.1v9.6c0,0.8-0.7,1.5-1.5,1.5h-2.9
		c-0.9,0-1.5-0.7-1.5-1.5v-9.6c0-0.1-0.1-0.1-0.1-0.1h-2.9c-0.8,0-1.5-0.7-1.5-1.5v-2.9c0-0.8,0.7-1.5,1.5-1.5H91
		C91.8,13.2,92.5,13.9,92.5,14.7z"/>
	<path class="st0" d="M104.9,14.4v2.4c0,0.6-0.5,1.1-1.1,1.1h-4.4c-0.1,0-0.1,0.1-0.1,0.1v2c0,0.1,0.1,0.1,0.1,0.1h3.1
		c0.6,0,1,0.4,1,1v2.3c0,0.6-0.5,1-1,1h-3.1c-0.1,0-0.1,0.1-0.1,0.2v4c0,0.9-0.7,1.6-1.6,1.6H95c-0.9,0-1.6-0.7-1.6-1.6V14.8
		c0-0.9,0.7-1.6,1.6-1.6h8.8C104.4,13.2,104.9,13.7,104.9,14.4z"/>
	<path class="st0" d="M109.8,30.3h-2.6c-0.8,0-1.5-0.7-1.5-1.5v-14c0-0.9,0.7-1.5,1.5-1.5h2.6c0.9,0,1.5,0.6,1.5,1.5v14
		C111.4,29.6,110.7,30.3,109.8,30.3z"/>
	<path class="st0" d="M127.2,14.7v2.9c0,0.8-0.7,1.5-1.5,1.5h-2.9c-0.1,0-0.2,0.1-0.2,0.1v9.6c0,0.8-0.7,1.5-1.5,1.5h-2.9
		c-0.9,0-1.5-0.7-1.5-1.5v-9.6c0-0.1-0.1-0.1-0.1-0.1h-2.9c-0.8,0-1.5-0.7-1.5-1.5v-2.9c0-0.8,0.7-1.5,1.5-1.5h12.1
		C126.5,13.2,127.2,13.9,127.2,14.7z"/>
	<g>
		<polygon class="st2" points="13.3,9.8 10.7,12.6 13.1,11.4 17.8,12.7 22.8,11.8 18.5,11.6 		"/>
		<polygon class="st2" points="20.8,10 23,8.1 15.1,9.6 		"/>
		<polygon class="st2" points="21.1,6.9 22.5,4.7 18,5.8 13.4,8.9 18.7,7.2 		"/>
		<path class="st2" d="M6.6,25l4,3.7l4.7-1.6c-0.1,0-4.4,0.4-4.4,0.4l-5.5-5.4L6.6,25z"/>
		<polygon class="st2" points="8.9,30.1 7.9,29.2 8.8,31.2 10.4,31.4 15.1,28.8 10.8,30.4 		"/>
		<polygon class="st2" points="27.3,11.6 23,11.8 28.1,12.7 32.7,11.4 35.1,12.6 32.5,9.8 		"/>
		<polygon class="st2" points="30.8,9.5 22.9,8.1 25.1,9.9 		"/>
		<polygon class="st2" points="27.1,7.2 32.4,8.9 27.8,5.8 23.4,4.7 24.7,6.9 		"/>
		<path class="st2" d="M30.5,27.2l4.7,1.6l4-3.7l1.2-2.8l-5.5,5.4C34.9,27.5,30.6,27.2,30.5,27.2z"/>
		<polygon class="st2" points="35.1,30.4 30.7,28.8 35.4,31.4 37.1,31.2 38,29.2 36.9,30.1 		"/>
		<path class="st0" d="M45,18L45,18C45,18,45,18,45,18C45,18,45,18,45,18L45,18c-0.1-0.1-0.5-0.4-0.9-0.7c-0.5-0.3-1.8-1-3.2-1.1
			c-0.6-0.1-1.1,0-1.4,0c-0.1-0.4-0.5-1.5-1.3-3.1c-0.1-0.2-0.2-0.4-0.3-0.6c0,0,0,0,0-0.1c0.2-0.3,1.4-1.8,1.9-3.2
			c0.6-1.6,0.7-3.3-0.1-5c-0.8-1.8-2.1-2-2.1-2l0,0c-0.2-0.1-0.9-0.2-2.2,0.1c-1.6,0.3-2.5,1-3.4,1.3c-0.8,0.3-1.4,0.6-1.7,0.7
			C30.1,4.5,29,4.3,29,4.3s-1.3-0.4-3.4-0.6c-1.8-0.1-2.5,0-2.7,0.1c-0.2-0.1-0.9-0.2-2.7-0.1c-2.1,0.2-3.4,0.6-3.4,0.6
			s-1.1,0.2-1.4,0.1c-0.3-0.1-0.9-0.4-1.7-0.7c-0.8-0.3-1.8-1-3.4-1.3c-1.3-0.3-2-0.1-2.2-0.1l0,0c0,0-1.2,0.2-2.1,2
			C5.3,6,5.5,7.6,6,9.3c0.5,1.5,1.7,2.9,1.9,3.2c0,0,0,0,0,0.1c-0.1,0.2-0.2,0.4-0.3,0.6c-0.8,1.6-1.1,2.7-1.3,3.1
			c-0.4,0-0.9-0.1-1.4,0c-1.4,0.1-2.7,0.7-3.2,1.1C1.3,17.6,1,17.9,0.9,18l0,0c0,0,0,0,0,0c0,0,0,0,0,0l0,0c0,0.3-0.2,1.9,0,3.8
			c0.3,2.1,0.9,5,0.9,5l0.6-0.2c0,0,0.2,0.7,0.9,2.2c1.5,3.4,3.3,5.2,3.3,5.2l1.1,0l0.1,1.5l9.4,2c0.4,1.1,0.7,1.9,0.7,1.9
			s0.7,0.7,1.7,1c1,0.3,3.1,0.4,3.3,0.4v0c0,0,0,0,0,0c0,0,0,0,0,0l0,0c0.3,0,2.4-0.1,3.3-0.4c1-0.3,1.7-1,1.7-1s0.3-0.8,0.7-1.9
			l9.4-2l0.1-1.5l1.1,0c0,0,1.9-1.8,3.3-5.2c0.7-1.5,0.9-2.2,0.9-2.2l0.6,0.2c0,0,0.6-2.9,0.9-5C45.2,20,45,18.4,45,18z M26.8,38.8
			c-0.3,0.5-3.8,1-3.8,1l0,0l-0.1,0l-0.1,0c0,0,0,0,0,0c-0.7-0.1-3.4-0.5-3.7-1c-0.2-0.3-1-2.3-1.7-4.1c0.4,0.1,0.8,0.2,1.4,0.2
			c1.4,0.1,2.6-0.2,3.2-0.6c0.5-0.3,0.8-0.7,0.9-0.8c0.1,0.2,0.4,0.6,0.9,0.8c0.6,0.3,1.8,0.7,3.2,0.6c0.6,0,1.1-0.1,1.4-0.2
			C27.8,36.4,26.9,38.5,26.8,38.8z M43.8,18.7c0,0,0,2.6-0.3,4.5c-0.3,2-0.5,2.3-0.5,2.3l-3.1,0.2L42,27c0,0-0.9,2.3-1.7,3.6
			c-0.8,1.3-1.9,2.3-1.9,2.3L36.7,33l-0.1,1.6l-7.5,1.6c0.8-2.1,1.6-4.4,1.7-4.7c0.2-0.5,0-0.9,0-0.9l-3.7-6.9
			c0.3,0.3,0.6,0.6,0.9,0.8L25.3,21c0,0,0,0.1,0,0.1c0,0,0,0.1,0,0.1c-0.2,1,1,3.5,1,3.5s1.5,2.8,2.5,4.6l-4.2,1.5l4.8-0.4
			c0.1,0.2,0.2,0.3,0.2,0.4c0.1,0.1,0.1,0.3,0.1,0.5l-5.2,0.2l5,0.7c0,0.1,0,0.1,0,0.1s-0.1,0.3-0.4,0.9l-4.7-1.2l3.8,1.8
			c-0.1,0-0.2,0-0.2,0.1c-1,0.3-2.3,0.2-3-0.1c-0.8-0.3-1.5-1.6-1.5-1.6l0.1-1.2c0,0,3.3-1.5,3.5-2.5c0.2-1-0.9-1-0.9-1l-3.3,0.7
			l0,0h0c0,0,0,0,0,0v0l-3.3-0.7c0,0-1,0-0.9,1c0.2,1,3.5,2.5,3.5,2.5l0.1,1.2c0,0-0.8,1.2-1.5,1.6c-0.8,0.3-2,0.4-3,0.1
			c-0.1,0-0.2,0-0.2-0.1l3.8-1.8l-4.7,1.2c-0.2-0.5-0.4-0.9-0.4-0.9s0,0,0-0.1l5-0.7l-5.2-0.2c0-0.2,0-0.3,0.1-0.5
			c0-0.1,0.1-0.2,0.2-0.4l4.8,0.4L17,29.3c1-1.8,2.5-4.6,2.5-4.6s1.2-2.5,1-3.5c0,0,0-0.1,0-0.1c0-0.1,0-0.1,0.1-0.2l-0.1,0
			c0,0-1.4,2.2-2,3.1c0.1-0.1,0.2-0.1,0.2-0.2l-3.7,6.9c0,0-0.2,0.4,0,0.9c0.1,0.3,1,2.6,1.7,4.7l-7.5-1.6L9.1,33l-1.7-0.1
			c0,0-1-0.9-1.9-2.3C4.7,29.3,3.9,27,3.9,27L6,25.7l-3.1-0.2c0,0-0.2-0.3-0.5-2.3c-0.3-1.8-0.3-4.5-0.3-4.5l0,0
			c0.2-0.2,1.1-1,2.6-1.2c1.7-0.3,2.7-0.1,2.7-0.1s0-0.4,0.4-1.2c0.3-0.8,0.6-1.8,1.3-3.2c0.7-1.4,2.6-3.8,2.6-3.8l-0.8-0.6
			c0,0-0.3,0.3-0.8,1c-0.3,0.4-0.9,1.1-1.4,1.9C8,10.8,7,9.2,6.8,8.2C6.6,6.9,6.5,5.9,7.1,4.6c0.4-0.9,1-1.2,1.2-1.3
			c0.2,0,1.1-0.2,1.6,0c0.6,0.2,2.5,0.9,3.5,1.4c1,0.5,1.8,0.8,2.4,0.8c0.6,0,1.8-0.3,3.7-0.6c1.7-0.3,3.1-0.1,3.3-0.1l0,0
			c0,0,0,0,0,0c0,0,0,0,0,0l0,0c0.3,0,1.6-0.3,3.3,0.1c1.9,0.4,3.1,0.6,3.7,0.6c0.6,0,1.4-0.3,2.4-0.8c1-0.5,3-1.2,3.5-1.4
			c0.5-0.2,1.4,0,1.6,0c0.3,0.1,0.8,0.4,1.2,1.3c0.6,1.3,0.5,2.3,0.3,3.6c-0.1,1-1.2,2.6-1.7,3.4c-0.6-0.9-1.1-1.5-1.4-1.9
			c-0.5-0.6-0.8-1-0.8-1l-0.8,0.6c0,0,1.8,2.4,2.6,3.8c0.7,1.4,1,2.4,1.3,3.2c0.3,0.9,0.4,1.2,0.4,1.2s0.9-0.2,2.7,0.1
			C42.7,17.7,43.6,18.5,43.8,18.7L43.8,18.7z"/>
		<path class="st1" d="M38,19.7c0-2.1-1-3.8-2.6-4.7c-1.1-0.7-2.7-0.8-3.7-0.8c0,0-1.4,0-2.7,0H16.9v0c-1.4-0.1-2.9,0-2.9,0
			c-1,0-2.6,0.1-3.7,0.8c-1.6,0.9-2.6,2.7-2.6,4.7c0,0-0.1,1.8,0.7,3.4c1.6,3,4.8,3.1,4.8,3.1c4.5,0,8.1-3.6,8.1-8.1l0,0
			c0,0,0-0.1,0-0.1h3c0,0,0,0.1,0,0.1l0,0c0,4.5,3.6,8.1,8.1,8.1c0,0,3.3-0.1,4.8-3.1C38.2,21.5,38,19.7,38,19.7z M21.1,16.7
			c-0.1-0.4-0.3-0.8-0.6-1.1h4.7c-0.3,0.3-0.5,0.7-0.6,1.1H21.1z"/>
	</g>
</g>
</svg>
